<svg width="400" height="63" viewBox="0 0 400 63" fill="none" xmlns="http://www.w3.org/2000/svg">
<g clip-path="url(#clip0_2802_1519)">
<path d="M327.307 37.6412C327.307 40.0266 325.591 41.921 322.124 43.254C319.498 44.2713 316.732 44.7975 313.826 44.7975C307.734 44.7975 304.688 43.2891 304.688 40.2722C304.688 38.1323 306.683 36.0626 310.64 34.0279C314.176 32.2388 317.152 31.3618 319.568 31.3618C321.704 31.3618 323.49 31.8529 324.891 32.8703C326.536 33.9928 327.307 35.5714 327.307 37.6412ZM325.206 37.4307C325.206 36.1678 324.575 35.2206 323.28 34.5892C322.265 34.063 321.074 33.8174 319.673 33.8174C317.398 33.8174 314.982 34.4489 312.531 35.7468C309.94 37.0448 306.858 38.6585 306.963 40.5178C307.068 42.377 310.78 43.1488 313.196 43.1488C315.507 43.1488 317.888 42.7278 320.339 41.8859C323.595 40.7633 325.206 39.2899 325.206 37.4307Z" fill="#23235F"/>
<path d="M342.156 21.2237C341.7 22.1709 330.986 42.4823 329.13 45.3238C328.92 45.6395 327.38 45.2186 327.415 44.3767C327.45 43.5347 339.144 21.3991 339.494 20.3116C339.81 19.5399 341.07 18.4173 342.051 19.3294C342.436 19.6802 342.576 20.3818 342.156 21.2237Z" fill="#23235F"/>
<path d="M351.187 21.2237C350.732 22.1709 340.017 42.4823 338.162 45.3238C337.951 45.6395 336.411 45.2186 336.446 44.3767C336.481 43.5347 348.176 21.3991 348.526 20.3116C348.841 19.5399 350.101 18.4173 351.082 19.3294C351.432 19.6802 351.607 20.3818 351.187 21.2237Z" fill="#23235F"/>
<path d="M363.935 42.2717C364.145 43.0785 361.344 43.745 358.507 44.2011C356.512 44.5168 354.446 44.6571 352.345 44.6571C348.038 44.6571 345.902 43.4293 345.902 40.9386C345.902 37.8867 348.248 35.5012 352.625 33.1157C355.846 31.3617 360.188 31.8879 360.713 32.0984C361.869 32.4843 362.429 33.4315 362.429 34.975C362.429 36.3431 361.554 37.3955 359.838 38.2024C358.402 38.8689 356.897 39.1846 355.391 39.1846C353.045 39.1846 351.365 38.8338 350.349 38.0971C349.089 38.6935 348.423 39.5003 348.423 40.4826C348.423 42.2015 349.964 43.0434 353.08 43.0434C354.236 43.0434 355.566 42.9733 357.107 42.7979C360.713 42.4471 363.724 41.4648 363.935 42.2717ZM360.013 34.9399C360.433 32.8351 353.01 33.5016 353.115 35.852C353.22 38.5883 359.663 36.5887 360.013 34.9399Z" fill="#23235F"/>
<path d="M381.3 34.0981C381.3 34.6593 379.864 45.6745 379.374 48.2705C377.834 56.5494 373.737 60.6889 367.084 60.6889C365.894 60.6889 364.318 60.303 362.427 59.5663C360.152 58.6893 358.996 57.7772 358.996 56.7599C358.996 56.5143 359.101 56.0583 359.346 55.3918H359.731C360.397 56.1284 361.517 56.8651 363.093 57.6018C364.668 58.3385 365.929 58.7244 366.874 58.7244C369.955 58.7244 372.547 57.251 374.577 54.2692C376.398 51.6031 377.343 48.6564 377.343 45.3939C377.343 44.5871 377.203 43.9556 376.888 43.3943C376.363 43.1838 374.227 43.3943 374.017 43.3943C371.531 43.3943 369.745 43.254 368.59 42.9734C366.314 42.4121 365.159 41.2544 365.159 39.5355C365.159 37.0799 366.559 34.9049 369.36 32.9755C371.916 31.2215 374.472 30.3445 376.993 30.3445C379.829 30.3445 381.3 31.5723 381.3 34.0981ZM378.849 33.642C378.849 32.8001 378.079 32.3791 376.503 32.3791C374.857 32.3791 373.037 33.0807 371.041 34.4489C368.835 35.9573 367.715 37.5008 367.715 39.0444C367.715 40.7633 369.395 41.6052 372.722 41.6052C373.597 41.6052 374.437 41.4649 375.278 41.2194C376.468 40.8686 376.923 40.3423 377.063 39.6758C377.343 38.4831 378.849 34.063 378.849 33.642Z" fill="#23235F"/>
<path d="M217.681 34.5541C217.786 35.5012 217.506 36.9395 216.841 38.8339C216.175 40.7282 214.985 42.0612 214.81 43.1137C214.67 43.8854 215.37 43.9907 215.335 44.3415C215.265 44.6923 214.705 45.6394 213.865 45.7447C213.409 45.8148 212.009 45.4991 211.904 44.4818C211.834 43.6749 212.324 42.0612 213.479 39.9915C214.635 37.9218 215.16 36.5186 215.09 35.7819C214.915 34.3787 214.145 33.7823 212.709 33.9577C210.853 34.1682 208.682 35.1504 207.037 37.0448C206.161 38.027 204.726 39.6407 202.625 42.3419C200.944 44.5169 199.159 46.341 198.633 45.9201C197.688 45.1834 198.458 43.254 200.734 39.746C202.03 37.7464 202.8 37.15 203.15 36.3081C203.325 35.5714 203.605 32.9755 203.851 32.2388C204.026 31.6775 204.446 30.5549 205.496 30.5549C206.932 30.5549 206.827 32.5896 206.722 32.9404C206.722 33.0456 206.512 33.8174 206.091 35.2557C208.262 33.7122 209.523 32.8702 209.838 32.6948C211.589 31.5723 212.884 30.9759 213.76 30.8707C214.775 30.7303 215.685 31.0811 216.386 31.8529C217.121 32.5896 217.541 33.5017 217.681 34.5541Z" fill="#23235F"/>
<path d="M301.154 43.8153C300.663 44.2713 292.155 46.306 292.155 46.306C288.654 47.0778 285.502 47.4636 282.736 47.4636C273.458 47.4636 268.836 44.131 268.836 37.4307C268.836 34.2384 270.341 30.4848 273.317 26.1699C275.838 22.5918 278.64 19.5749 281.721 17.1543C285.467 14.2076 288.829 12.7693 291.735 12.7693C295.972 12.7693 298.107 14.7689 298.107 18.8031C298.107 19.4696 297.897 21.7849 297.617 22.9776C297.337 24.2756 294.536 23.6792 294.641 22.2059C294.746 20.8728 294.851 19.9257 294.851 18.8732C294.851 16.9088 293.766 15.9265 291.595 15.9265C288.619 15.9265 285.432 17.3648 282.036 20.2765C279.27 22.6619 276.959 25.3982 275.033 28.4852C272.862 31.9582 271.812 35.0803 271.812 37.8166C271.812 40.5177 273.107 42.5524 275.663 43.9556C277.729 45.0782 280.215 45.6395 283.121 45.6395C284.767 45.6395 289.074 45.3588 291.315 44.9379C292.435 44.7274 299.998 42.5173 300.698 42.6927C301.154 42.7278 301.399 43.6048 301.154 43.8153Z" fill="#23235F"/>
<path d="M400.001 42.2717C400.211 43.0785 397.41 43.745 394.574 44.2011C392.578 44.5168 390.512 44.6571 388.411 44.6571C384.105 44.6571 381.969 43.4293 381.969 40.9386C381.969 37.8867 384.315 35.5012 388.691 33.1157C391.913 31.3617 396.254 31.8879 396.78 32.0984C397.935 32.4843 398.495 33.4315 398.495 34.975C398.495 36.3431 397.62 37.3955 395.904 38.2024C394.434 38.8689 392.963 39.1846 391.458 39.1846C389.112 39.1846 387.431 38.8338 386.416 38.0971C385.155 38.6935 384.49 39.5003 384.49 40.4826C384.49 42.2015 386.03 43.0434 389.147 43.0434C390.302 43.0434 391.633 42.9733 393.173 42.7979C396.78 42.4471 399.791 41.4648 400.001 42.2717ZM396.079 34.9399C396.5 32.8351 389.077 33.5016 389.182 35.852C389.287 38.5883 395.729 36.5887 396.079 34.9399Z" fill="#23235F"/>
<path d="M122.372 17.0842C117.05 12.3484 108.332 16.3826 103.184 19.3995C96.1817 23.4688 87.8833 30.555 87.7783 39.3953C87.6733 48.3056 96.2517 48.3758 102.554 45.1835C113.584 39.6408 120.726 29.0817 122.232 16.8737C120.937 17.2245 119.641 17.5754 118.346 17.9262C119.186 18.8032 116.455 24.6616 116.14 25.6438C114.809 29.5026 113.584 33.3965 112.848 37.4308C112.008 41.9912 112.708 49.0774 118.801 51.4628C120.131 51.9891 122.757 50.2701 120.481 49.5685C117.33 48.5863 116.77 42.763 116.56 40.7283C116.21 37.08 117.61 33.0808 118.626 29.643C119.256 27.5732 123.913 18.3471 122.127 16.4528C121.462 15.7512 118.346 16.4879 118.24 17.5052C117.295 25.0474 114.459 31.7127 109.382 37.4308C106.336 40.8686 101.469 44.9379 96.7069 45.3238C92.1901 45.6746 91.5948 40.4126 91.91 37.2203C92.4702 31.397 96.7069 27.0119 100.979 23.4688C105.11 20.031 113.479 14.0322 118.556 18.5576C119.501 19.3294 123.212 17.8209 122.372 17.0842Z" fill="#23235F"/>
<path d="M136.238 21.2237C135.782 22.1709 125.068 42.4823 123.212 45.3238C123.002 45.6395 121.462 45.2186 121.497 44.3767C121.532 43.5347 133.226 21.3991 133.577 20.3116C133.892 19.5399 135.152 18.4173 136.133 19.3294C136.483 19.6802 136.658 20.3818 136.238 21.2237Z" fill="#23235F"/>
<path d="M243.838 19.3294C242.858 18.4173 241.597 19.5399 241.282 20.3116C241.107 20.908 237.396 28.0293 234.139 34.3788C233.509 33.2211 232.249 32.6248 230.288 32.6248C227.767 32.6248 225.211 33.5018 222.655 35.2558C219.854 37.1852 218.453 39.3602 218.453 41.8158C218.453 43.5347 219.609 44.6924 221.884 45.2537C223.04 45.5343 224.826 45.6746 227.312 45.6746C227.522 45.6746 230.778 45.6045 230.918 45.3589C232.669 42.4823 243.488 22.206 243.943 21.2588C244.398 20.3818 244.258 19.6802 243.838 19.3294ZM226.086 43.8505C222.76 43.8855 221.079 43.0085 221.079 41.2896C221.079 39.7461 222.2 38.2025 224.406 36.6941C226.401 35.326 228.222 34.6244 229.868 34.6244C231.408 34.6244 232.284 35.1155 232.459 35.9223C232.704 37.0098 231.898 39.9565 229.903 42.8331C229.623 43.0787 228.852 43.8505 226.086 43.8505Z" fill="#23235F"/>
<path d="M146.883 48.2354C146.743 48.2354 146.603 48.2004 146.498 48.1653C143.697 47.0778 142.962 44.096 143.207 41.6053C141.841 42.9734 140.23 44.096 138.48 45.0081C137.184 45.6395 135.819 45.9903 134.593 45.9903C133.368 45.9903 132.352 45.6044 131.652 44.9379C130.952 44.2012 130.602 43.1839 130.602 41.8158C130.672 36.5888 136.169 32.8352 138.515 31.4671C142.541 29.1167 145.693 28.5554 147.828 29.8183C148.109 29.8183 148.389 30.0639 148.634 30.4849C148.879 30.9058 148.179 33.4667 147.233 35.7469C147.023 36.2731 146.813 36.7291 146.743 36.9747L146.568 37.5009C146.078 39.0795 145.553 40.8686 145.693 42.4823C145.938 45.0081 146.533 46.4464 147.478 46.727C148.109 46.9375 148.144 47.2532 148.109 47.4637C148.074 47.8846 147.443 48.2354 146.883 48.2354ZM144.222 30.6953C142.506 30.6953 140.265 31.8179 137.744 33.9578C135.784 35.5715 133.543 37.8166 133.263 40.7634C133.158 41.8859 133.298 43.3242 133.963 44.0609C134.313 44.4468 134.803 44.6222 135.398 44.5871C138.2 44.3766 140.896 41.5351 141.631 40.6932C142.821 39.3601 143.767 37.8868 144.502 36.3082C144.677 35.817 144.817 35.2908 144.992 34.7997C145.027 34.6945 145.097 34.5191 145.202 34.2384L145.483 33.607C145.693 32.8352 145.868 32.0635 145.973 31.2566C145.483 30.8707 144.887 30.6953 144.222 30.6953Z" fill="#23235F"/>
<path d="M177.483 38.8339C178.148 36.9395 178.463 35.5013 178.323 34.5541C178.183 33.5017 177.763 32.5896 177.028 31.7828C176.292 31.011 175.417 30.6602 174.402 30.8005C173.526 30.9058 172.231 31.5021 170.48 32.6247C170.235 32.765 169.395 33.3263 168.029 34.2734C167.854 33.3263 167.469 32.4844 166.804 31.7477C166.068 30.9759 165.193 30.6251 164.177 30.7654C163.302 30.8707 162.007 31.467 160.256 32.5896C159.941 32.765 158.715 33.6069 156.509 35.1505C156.93 33.7122 157.14 32.9404 157.14 32.8352C157.245 32.4844 157.35 30.4497 155.914 30.4497C154.864 30.4497 154.444 31.5723 154.269 32.1336C154.058 32.8702 153.743 35.4662 153.568 36.2029C153.218 37.0799 152.448 37.6412 151.152 39.6407C148.876 43.1487 148.106 45.1132 149.051 45.8148C149.577 46.2358 151.362 44.4116 153.043 42.2367C155.144 39.5355 156.579 37.9218 157.455 36.9395C159.1 35.0452 161.236 34.063 163.127 33.8525C164.528 33.6771 165.333 34.3085 165.508 35.6767C165.578 36.4133 162.847 42.1665 162.917 42.9383C163.022 43.9205 165.508 42.9032 165.858 41.5701L167.854 36.7992C169.5 35.0101 171.565 34.063 173.386 33.8525C174.787 33.6771 175.592 34.3085 175.767 35.6767C175.837 36.4133 175.312 37.8166 174.156 39.8863C173.001 41.956 172.476 43.3943 172.581 44.1661C172.686 45.1483 174.086 45.464 174.542 45.429C175.417 45.3237 175.977 44.3415 176.012 44.0258C176.082 43.675 175.347 43.6048 175.487 42.7979C175.662 41.8508 176.818 40.7282 177.483 38.8339Z" fill="#23235F"/>
<path d="M195.899 48.2354C195.759 48.2354 195.619 48.2004 195.514 48.1653C192.712 47.0778 191.977 44.096 192.222 41.6053C190.857 42.9734 189.246 44.096 187.495 45.0081C186.2 45.6395 184.834 45.9903 183.609 45.9903C182.383 45.9903 181.368 45.6044 180.668 44.9379C179.967 44.2012 179.617 43.1839 179.617 41.8158C179.687 36.5888 185.184 32.8352 187.53 31.4671C191.557 29.1167 194.708 28.5554 196.844 29.8183C197.124 29.8183 197.404 30.0639 197.649 30.4849C197.894 30.9058 197.194 33.4667 196.249 35.7469C196.039 36.2731 195.829 36.7291 195.759 36.9747L195.584 37.5009C195.093 39.0795 194.568 40.8686 194.708 42.4823C194.953 45.0081 195.549 46.4464 196.494 46.727C197.124 46.9375 197.159 47.2532 197.124 47.4637C197.089 47.8846 196.424 48.2354 195.899 48.2354ZM193.238 30.6953C191.522 30.6953 189.281 31.8179 186.76 33.9578C184.799 35.5715 182.558 37.8166 182.278 40.7634C182.173 41.8859 182.313 43.3242 182.979 44.0609C183.329 44.4468 183.819 44.6222 184.414 44.5871C187.215 44.3766 189.911 41.5351 190.647 40.6932C191.837 39.3601 192.782 37.8868 193.518 36.3082C193.693 35.817 193.833 35.2908 194.008 34.7997C194.043 34.6945 194.113 34.5191 194.218 34.2384L194.498 33.607C194.708 32.8352 194.883 32.0635 194.988 31.2566C194.498 30.8707 193.903 30.6953 193.238 30.6953Z" fill="#23235F"/>
<path d="M253.395 48.2354C253.255 48.2354 253.115 48.2004 253.01 48.1653C250.209 47.0778 249.473 44.096 249.718 41.6053C248.353 42.9734 246.742 44.096 244.991 45.0081C243.696 45.6395 242.33 45.9903 241.105 45.9903C239.879 45.9903 238.864 45.6044 238.164 44.9379C237.463 44.2012 237.113 43.1839 237.113 41.8158C237.183 36.5888 242.68 32.8352 245.026 31.4671C249.053 29.1167 252.204 28.5554 254.34 29.8183C254.62 29.8183 254.9 30.0639 255.145 30.4849C255.391 30.9058 254.69 33.4667 253.745 35.7469C253.535 36.2731 253.325 36.7291 253.255 36.9747L253.08 37.5009C252.589 39.0795 252.064 40.8686 252.204 42.4823C252.449 45.0081 253.045 46.4464 253.99 46.727C254.62 46.9375 254.655 47.2532 254.62 47.4637C254.585 47.8846 253.92 48.2354 253.395 48.2354ZM250.734 30.6953C249.018 30.6953 246.777 31.8179 244.256 33.9578C242.33 35.5715 240.054 37.8166 239.774 40.7634C239.669 41.8859 239.809 43.3242 240.475 44.0609C240.825 44.4468 241.315 44.6222 241.91 44.5871C244.711 44.3766 247.407 41.5351 248.143 40.6932C249.333 39.3601 250.279 37.8868 251.014 36.3082C251.189 35.817 251.329 35.2908 251.504 34.7997C251.539 34.6945 251.609 34.5191 251.714 34.2384L251.994 33.607C252.204 32.8352 252.379 32.0635 252.484 31.2566C251.994 30.8707 251.399 30.6953 250.734 30.6953Z" fill="#23235F"/>
<path d="M21.8488 32.1335C20.3082 35.3258 16.5617 34.8697 13.5504 34.0979C9.38378 33.0455 5.56726 30.169 4.37678 25.8892C3.78154 23.6791 3.9216 20.8025 5.11207 18.803C5.4272 18.3118 5.84737 18.3469 5.11207 18.4872C5.4272 18.4171 5.84737 18.5574 6.16249 18.6276C7.52804 18.8731 8.82356 19.4344 10.049 20.0659C12.6051 21.3287 14.986 22.9424 17.2969 24.6614C19.7129 26.4154 23.1793 28.6605 21.8488 32.1335C21.5336 32.9754 25.4202 32.5193 25.8404 31.4669C27.2759 27.7835 23.9846 25.398 21.3936 23.4336C18.7325 21.3989 15.8964 19.5046 12.8152 18.1014C10.049 16.8736 7.1779 16.2772 4.27174 17.2594C1.33056 18.2417 0.385183 20.4517 0.070057 23.3634C-1.15543 34.8346 14.951 39.36 23.1093 34.3435C24.2647 33.6419 25.2451 32.6947 25.8404 31.4669C26.1905 30.7302 22.339 31.081 21.8488 32.1335Z" fill="#B46428"/>
<path d="M66.6666 23.8898C66.4565 19.3995 61.3095 17.014 57.528 16.2072C52.3109 15.1197 46.2184 16.1721 42.1218 19.7503C40.021 21.5745 38.8655 24.3107 38.5854 27.047C38.3053 29.4324 39.7409 30.9409 41.9117 31.6425C44.6778 32.5546 47.8641 32.2038 50.6652 31.853C53.7114 31.5022 56.7226 30.7655 59.6988 29.9586C62.8501 29.1167 66.5616 27.7135 66.6666 23.8898C66.6666 23.1531 62.64 23.7144 62.605 24.9773C62.535 28.345 58.9986 28.7308 56.4075 29.3623C53.8515 29.9586 51.1904 30.3796 48.5644 30.4498C46.7086 30.4849 44.1176 30.2393 43.0322 28.4853C41.8417 26.5559 43.0672 23.5039 44.0476 21.7148C46.2184 17.7858 50.4551 17.0842 54.4818 17.9261C57.9832 18.6628 62.3949 20.9079 62.57 24.9773C62.64 25.7841 66.7016 25.0825 66.6666 23.8898Z" fill="#B46428"/>
<path d="M33.1591 0.0350055C22.3048 -0.912161 16.9126 15.0493 23.9504 22.2057C27.5919 25.9242 35.26 26.9766 37.6409 21.3638C38.7263 18.8029 38.6913 15.7159 38.6213 12.9796C38.5513 10.1732 38.2362 7.36677 37.746 4.59544C37.3608 2.31522 35.8552 0.455968 33.5093 0.0700857C32.5639 -0.0702352 31.5485 0.140246 30.6731 0.561209C30.393 0.70153 29.2375 1.54346 30.1829 1.71886C33.4042 2.24506 33.7193 5.64784 34.0695 8.31394C34.3846 10.8397 34.5947 13.4006 34.5597 15.9614C34.5597 18.2767 34.3496 20.7323 33.2642 22.8021C33.0891 23.1529 32.809 23.4686 32.5289 23.7492C32.2838 23.9948 32.2137 23.7843 33.0891 23.644C33.5443 23.5388 32.879 23.5738 32.774 23.5738C31.4434 23.2932 30.1479 22.6618 29.0275 21.89C25.1409 19.259 24.2305 14.1723 25.1409 9.85747C25.5611 7.82282 26.4364 5.75308 27.6619 4.06923C28.2221 3.33255 28.8874 2.63094 29.6577 2.10474C29.9028 1.92934 30.0779 1.85918 30.288 1.75394C29.8678 1.89426 30.288 1.8241 30.5331 1.8241C31.4784 1.89426 32.6339 1.57854 33.4042 1.05233C34.1045 0.561209 33.9294 0.105166 33.1591 0.0350055Z" fill="#777B32"/>
<path d="M40.1261 37.2201C40.8614 36.764 43.0323 37.641 43.9077 38.0971C45.8684 39.0442 47.5491 40.5176 48.9847 42.1664C52.1359 45.8147 53.4315 50.9715 51.0505 55.3566C50.4553 56.444 49.5799 57.5315 48.5995 58.3033C47.9343 58.8295 49.72 58.4436 48.7746 58.2331C48.3194 58.1279 47.9343 57.8823 47.5491 57.6017C45.6233 56.3037 44.3278 54.0586 43.2074 52.059C41.9819 49.8139 40.9665 47.4284 40.0561 45.043C39.1808 42.6575 37.5701 39.0793 40.1261 37.2201C40.7564 36.764 40.6864 36.308 39.881 36.2378C38.9707 36.1677 37.7802 36.4483 37.0099 37.0096C33.8236 39.3249 34.734 42.5873 35.8894 45.7796C37.0449 48.9369 38.4105 52.059 40.1612 54.9005C41.4917 57.0053 43.3124 59.5311 45.9385 59.9871C49.1598 60.5484 52.0659 58.6892 53.9917 56.2686C61.6948 46.6567 48.3894 30.7302 37.5701 36.6939C37.36 36.7991 37.1499 36.9394 36.9749 37.0447C36.3096 37.4656 36.4847 37.9568 37.22 38.0269C38.2354 38.0269 39.2858 37.7112 40.1261 37.2201Z" fill="#777B32"/>
<path d="M32.5253 62.1623C32.3502 62.1974 32.1752 62.1623 32.0001 62.1272C28.0435 61.1099 26.5729 57.216 26.5029 53.7781C24.8572 55.8478 22.8964 57.6369 20.6906 59.1454C19.0799 60.2329 17.2592 60.9345 15.6135 61.1099C13.9329 61.3204 12.4973 60.9696 11.4469 60.1276C10.3614 59.2506 9.73118 57.9176 9.52109 56.0934C8.75079 49.0774 15.5785 43.0786 18.5547 40.8335C23.5967 37.0098 27.7984 35.7469 30.8446 37.0799C31.2298 37.0448 31.5449 37.115 31.72 37.2553C31.755 37.2904 31.79 37.3255 31.825 37.3255L31.895 37.2904L31.9301 37.4307C31.9651 37.4658 32.0001 37.5009 32.0001 37.571L32.1051 37.6061H32.0351C32.7004 38.869 31.9301 41.8859 31.0197 45.1484C30.8096 45.9201 30.5995 46.5516 30.5645 46.9024L30.4245 47.6741C30.0393 49.8842 29.5841 52.3749 30.0393 54.5148C30.7746 57.8825 31.825 59.7067 33.1555 59.9522C34.0309 60.1276 34.1359 60.5486 34.1359 60.8292C34.1009 61.4958 33.2606 62.057 32.5253 62.1623ZM26.1177 38.869C23.8068 39.1497 20.9707 41.044 17.8544 44.3415C15.4735 46.8322 12.7774 50.235 12.8824 54.2692C12.9175 55.7777 13.3376 57.7071 14.353 58.6192C14.9132 59.1103 15.5785 59.2506 16.3838 59.0752C20.1303 58.3035 23.3166 54.0588 24.192 52.7959C25.5575 50.7963 26.6429 48.6564 27.3432 46.4113C27.4833 45.7097 27.6233 45.008 27.7634 44.2714C27.7984 44.131 27.8684 43.8504 27.9735 43.4996L28.2186 42.5875C28.3936 41.5351 28.4637 40.4125 28.4987 39.3251C27.8334 38.9041 26.9931 38.7638 26.1177 38.869ZM30.5995 37.8517C30.2144 37.9218 29.8992 38.0972 29.6191 38.2376L30.5995 37.8517Z" fill="#23235F"/>
</g>
<defs>
<clipPath id="clip0_2802_1519">
<rect width="400" height="62.1622" fill="white"/>
</clipPath>
</defs>
</svg>
